<svg width="100" height="100" viewBox="0 0 100 100" fill="none" xmlns="http://www.w3.org/2000/svg">
<path d="M49.616 14.272C46.992 18.048 43.6 21.984 39.44 26.08C35.344 30.112 30.768 33.984 25.712 37.696C20.72 41.408 15.504 44.704 10.064 47.584C9.744 47.008 9.328 46.368 8.816 45.664C8.304 44.96 7.76 44.288 7.184 43.648C6.672 42.944 6.128 42.336 5.552 41.824C11.12 39.072 16.464 35.776 21.584 31.936C26.768 28.032 31.44 23.936 35.6 19.648C39.76 15.36 43.088 11.232 45.584 7.264H52.88C55.44 10.656 58.352 14.016 61.616 17.344C64.88 20.672 68.336 23.808 71.984 26.752C75.696 29.632 79.472 32.256 83.312 34.624C87.216 36.992 91.056 39.008 94.832 40.672C93.936 41.568 93.072 42.592 92.24 43.744C91.408 44.896 90.672 46.016 90.032 47.104C86.384 45.184 82.64 42.976 78.8 40.48C74.96 37.92 71.216 35.2 67.568 32.32C63.984 29.376 60.656 26.4 57.584 23.392C54.512 20.32 51.856 17.28 49.616 14.272ZM25.904 36.64H74V43.072H25.904V36.64ZM13.424 55.936H86.48V62.272H13.424V55.936ZM9.008 86.272H91.088V92.608H9.008V86.272ZM45.776 39.136H53.36V89.536H45.776V39.136ZM21.392 67.168L27.248 64.864C28.592 66.592 29.872 68.512 31.088 70.624C32.368 72.672 33.488 74.72 34.448 76.768C35.408 78.752 36.08 80.544 36.464 82.144L30.224 84.832C29.84 83.232 29.2 81.408 28.304 79.36C27.408 77.312 26.352 75.232 25.136 73.12C23.92 71.008 22.672 69.024 21.392 67.168ZM71.696 64.672L78.512 67.36C76.656 70.368 74.672 73.504 72.56 76.768C70.512 79.968 68.56 82.656 66.704 84.832L61.328 82.528C62.48 80.928 63.696 79.104 64.976 77.056C66.256 74.944 67.472 72.8 68.624 70.624C69.84 68.448 70.864 66.464 71.696 64.672Z" fill="black"/>
</svg>
